<?xml version="1.0" standalone="no"?>
<!DOCTYPE svg PUBLIC "-//W3C//DTD SVG 20010904//EN"
 "http://www.w3.org/TR/2001/REC-SVG-20010904/DTD/svg10.dtd">
<svg version="1.0" xmlns="http://www.w3.org/2000/svg"
 width="1242.000000pt" height="2436.000000pt" viewBox="0 0 1242.000000 2436.000000"
 preserveAspectRatio="xMidYMid meet">

<g transform="translate(0.000000,2436.000000) scale(0.100000,-0.100000)"
fill="#000000" stroke="none">
<path d="M7170 18300 c0 -5 -12 -12 -27 -15 -46 -10 -163 -58 -163 -67 0 -4
-6 -8 -12 -8 -40 -2 -214 -188 -233 -250 -4 -14 -12 -31 -17 -38 -15 -18 -21
-179 -9 -242 18 -97 56 -223 81 -268 5 -9 21 -42 35 -72 50 -106 93 -169 120
-176 28 -7 98 27 119 58 13 18 16 56 16 208 0 183 0 185 25 210 44 46 54 50
105 50 42 0 55 -5 75 -26 14 -15 25 -33 25 -41 0 -7 11 -31 25 -53 21 -34 31
-40 59 -40 18 0 39 6 45 14 14 16 41 117 41 150 0 16 18 39 55 71 30 25 55 52
55 60 0 7 8 32 19 55 20 44 57 73 110 85 18 4 44 13 59 21 15 8 32 14 39 14 7
0 24 17 38 37 19 28 25 50 25 89 0 49 -3 54 -37 81 -44 34 -105 58 -183 71
-30 6 -56 15 -58 21 -5 14 -432 16 -432 1z"/>
<path d="M6828 16861 c-31 -31 -22 -57 32 -92 55 -36 52 -49 -11 -49 -38 0
-166 -37 -211 -61 -26 -14 -116 -124 -152 -185 -11 -18 -16 -39 -13 -48 5 -13
15 -11 64 17 63 36 108 53 222 87 78 24 141 23 227 -3 104 -31 184 -130 240
-297 15 -45 19 -85 18 -215 0 -207 -13 -251 -128 -440 -20 -33 -39 -71 -42
-85 -3 -14 -11 -39 -19 -56 -8 -18 -17 -48 -20 -68 -4 -20 -11 -39 -16 -42
-13 -7 -11 -64 1 -64 13 0 58 27 86 53 18 15 24 16 30 5 5 -7 9 -170 8 -363 0
-288 -3 -361 -16 -415 -9 -36 -19 -83 -23 -105 -3 -22 -12 -56 -19 -75 -37
-99 -37 -99 -3 -120 34 -21 134 -37 147 -24 20 21 34 922 18 1143 -7 85 -3
103 32 156 11 17 24 41 30 55 6 14 15 34 20 45 62 131 98 387 79 570 -12 119
-50 260 -84 309 -23 33 -19 59 8 53 29 -6 84 -26 122 -43 17 -7 41 -14 55 -16
22 -3 25 1 28 34 2 28 -3 42 -23 62 -14 14 -31 23 -39 20 -16 -6 -119 33 -216
81 -36 18 -92 46 -125 62 -120 60 -220 116 -223 124 -6 16 -66 8 -84 -10z"/>
<path d="M6018 16279 c-24 -18 -28 -28 -28 -73 0 -60 -8 -71 -85 -112 -64 -33
-82 -49 -90 -82 -4 -15 -12 -34 -20 -42 -16 -19 -38 -197 -38 -315 0 -125 23
-317 39 -336 9 -10 14 -42 14 -95 0 -50 5 -87 14 -99 7 -12 16 -62 19 -122 3
-57 10 -111 15 -120 6 -10 13 -69 17 -131 8 -131 22 -108 -125 -222 -52 -41
-109 -88 -127 -104 -17 -17 -43 -41 -58 -53 -35 -30 -68 -107 -61 -141 3 -15
11 -108 16 -207 11 -200 29 -303 54 -317 9 -5 16 -18 16 -29 0 -23 157 -183
220 -225 25 -16 47 -32 50 -36 3 -3 17 -9 32 -13 15 -4 32 -13 39 -21 6 -8 22
-14 35 -14 12 0 34 -4 48 -10 15 -5 28 -6 31 0 3 5 10 123 16 262 5 139 14
278 20 308 5 30 12 105 15 165 4 103 18 254 44 505 6 58 16 155 21 215 6 74
16 122 29 148 14 27 20 57 20 107 0 68 -1 70 -39 107 l-40 38 14 95 c7 52 18
136 23 185 18 151 66 415 82 445 5 10 10 29 10 42 0 13 7 36 16 53 8 16 16 45
17 64 2 35 1 35 -48 44 -59 10 -85 30 -85 67 0 30 -14 49 -52 73 -35 22 -57
21 -90 -4z"/>
<path d="M7765 13794 c-81 -36 -125 -54 -135 -54 -7 0 -24 -6 -38 -14 -15 -7
-58 -23 -97 -35 -38 -13 -84 -29 -102 -37 -17 -8 -40 -14 -52 -14 -11 0 -38
-6 -58 -14 -71 -27 -176 -56 -201 -56 -13 0 -50 -6 -81 -14 -83 -21 -311 -41
-428 -39 -118 3 -105 16 -123 -122 -19 -144 -24 -254 -11 -268 6 -8 23 -56 37
-108 14 -52 32 -110 40 -129 7 -19 18 -53 23 -75 11 -43 34 -122 50 -170 5
-16 19 -64 31 -105 12 -41 28 -93 35 -115 7 -22 21 -67 30 -100 10 -33 26 -86
37 -118 10 -31 18 -65 18 -75 0 -10 4 -22 9 -28 5 -5 17 -36 26 -69 9 -33 22
-82 30 -110 7 -27 18 -65 24 -82 6 -18 16 -48 22 -65 10 -31 24 -79 52 -186
l12 -43 50 3 50 3 3 -312 c2 -311 2 -311 23 -306 12 3 78 61 147 128 l125 123
2 57 c2 40 -2 58 -11 62 -10 4 -14 23 -14 64 0 44 -4 61 -15 65 -31 12 -13 33
60 70 42 20 78 41 81 46 3 4 20 8 38 8 19 0 39 7 46 15 7 8 28 15 46 15 23 0
38 6 46 20 11 17 24 20 75 20 49 0 63 3 63 15 0 13 25 15 165 15 101 0 172 -4
183 -11 13 -8 27 -5 65 16 47 26 47 27 47 78 0 29 -5 68 -11 87 -6 19 -17 73
-25 120 -30 186 -36 217 -49 270 -8 30 -19 87 -25 125 -19 121 -36 218 -48
270 -12 53 -24 118 -46 250 -8 44 -19 100 -24 125 -11 48 -24 116 -47 245 -19
109 -34 187 -51 266 -8 37 -14 88 -14 115 0 53 -27 163 -44 180 -8 9 -18 9
-41 -2z"/>
<path d="M5776 12657 c-10 -17 -22 -45 -27 -60 -7 -26 -4 -30 38 -58 26 -16
53 -29 60 -29 17 0 17 -37 0 -47 -7 -4 -32 -48 -56 -98 -23 -49 -46 -97 -51
-105 -5 -8 -28 -53 -51 -100 -150 -304 -652 -1318 -659 -1330 -11 -20 -77
-153 -130 -262 -23 -48 -49 -89 -58 -93 -9 -3 -48 13 -91 38 -42 24 -83 47
-91 50 -8 4 -28 15 -45 26 -79 49 -111 62 -183 77 -116 25 -262 13 -447 -35
-49 -12 -209 -93 -291 -146 -159 -103 -396 -328 -539 -509 -115 -145 -309
-437 -346 -521 -5 -11 -22 -42 -38 -70 -17 -27 -30 -56 -30 -63 -2 -32 186
-158 404 -272 33 -17 67 -35 75 -39 38 -21 118 -54 235 -98 92 -35 135 -57
135 -70 0 -23 -119 -220 -136 -227 -9 -3 -26 -3 -39 0 -18 4 -27 0 -40 -20
-25 -38 -4 -114 44 -160 43 -41 126 -76 182 -76 39 0 111 29 124 50 10 16 34
12 102 -20 34 -16 72 -30 82 -30 26 0 33 -13 37 -70 2 -27 9 -61 14 -75 16
-41 107 -125 136 -125 14 0 41 -7 61 -15 103 -43 239 17 274 122 15 47 6 158
-15 182 -20 22 -21 70 -1 77 8 4 51 -1 95 -10 105 -21 171 -20 250 3 139 41
147 46 180 121 6 13 14 27 18 30 12 8 117 229 157 325 20 50 40 99 45 110 5
11 18 52 31 90 12 39 28 85 35 103 8 18 14 41 14 52 0 11 7 41 16 67 9 26 20
75 24 108 5 33 14 104 20 157 10 75 10 116 1 180 -20 144 -29 187 -45 210 -28
40 -20 79 35 178 4 8 20 40 34 70 14 30 30 62 35 70 5 8 27 53 50 100 23 47
45 92 50 100 5 8 21 40 35 70 14 30 202 410 418 843 391 785 392 788 420 782
15 -3 40 -8 57 -11 25 -5 31 -2 39 19 5 14 15 28 20 32 21 12 12 52 -16 71
-67 45 -114 69 -156 79 -24 6 -27 4 -27 -19 0 -16 -6 -26 -14 -26 -8 0 -18
-14 -21 -32 -6 -26 -3 -35 15 -50 12 -10 17 -18 11 -18 -6 0 -11 -8 -11 -17 0
-12 -370 -772 -420 -863 -5 -8 -81 -161 -170 -340 -88 -179 -165 -332 -170
-340 -5 -8 -21 -40 -36 -70 -122 -254 -208 -420 -222 -425 -11 -4 -21 0 -27
11 -18 32 -130 134 -152 140 -13 4 -23 10 -23 14 0 4 -12 13 -27 19 -16 5 -39
19 -52 31 -21 18 -22 23 -10 38 14 17 40 67 59 112 5 14 14 33 20 43 5 9 15
25 20 35 6 9 13 24 16 32 12 27 685 1385 694 1400 6 8 13 22 16 30 22 55 122
248 136 263 15 15 18 36 18 135 0 64 -4 122 -8 128 -9 13 -76 54 -88 54 -5 0
-17 -15 -28 -33z m-2307 -2535 c51 -41 190 -120 296 -171 134 -64 144 -68 220
-97 39 -14 75 -30 80 -34 6 -5 21 -10 35 -12 32 -4 36 -28 9 -59 -22 -25 -65
-88 -84 -124 -20 -36 -70 -24 -231 56 -210 103 -375 201 -458 271 -21 18 -42
35 -47 36 -22 8 -5 44 47 101 33 35 65 61 76 61 11 0 37 -13 57 -28z m1652
-650 c-15 -145 -62 -344 -97 -414 -8 -14 -14 -34 -14 -43 0 -9 -6 -29 -14 -43
-7 -15 -26 -52 -41 -82 -15 -30 -44 -86 -66 -125 -21 -38 -43 -79 -48 -91 -5
-11 -23 -41 -40 -66 -17 -25 -31 -53 -31 -62 0 -9 -12 -21 -26 -26 -43 -17
-95 -13 -231 16 -27 5 -30 36 -8 74 8 14 20 36 27 50 7 14 26 45 42 69 15 24
38 63 50 86 24 44 120 208 148 253 29 46 47 76 63 107 9 17 23 42 33 57 9 14
30 48 46 75 16 26 43 66 61 88 17 22 51 70 75 108 24 37 49 67 57 67 7 0 13 8
14 18 0 10 3 12 6 4 2 -7 0 -61 -6 -120z"/>
<path d="M7510 10385 c-25 -19 -48 -34 -53 -34 -4 -1 -30 -17 -57 -36 -27 -19
-52 -35 -55 -35 -3 0 -27 -16 -54 -35 -26 -19 -51 -35 -54 -35 -4 0 -97 -59
-122 -78 -5 -4 -23 -16 -39 -26 l-29 -18 6 -160 c5 -145 7 -162 26 -179 20
-19 21 -19 33 1 7 11 18 20 25 20 7 0 13 4 13 9 0 4 62 72 138 149 141 144
242 253 242 260 0 2 9 15 20 29 17 21 20 41 20 114 0 49 -3 89 -7 88 -5 0 -28
-15 -53 -34z"/>
<path d="M5996 9866 c-69 -70 -70 -72 -69 -122 1 -29 9 -66 17 -82 9 -17 16
-37 16 -45 0 -44 98 -173 164 -215 49 -31 89 -53 90 -50 1 2 9 18 19 36 9 19
17 40 17 47 0 8 16 47 35 88 33 70 44 117 28 117 -15 0 -79 65 -114 115 -19
28 -50 80 -69 118 -21 42 -39 67 -49 66 -9 -1 -47 -33 -85 -73z"/>
<path d="M5492 9581 l-32 -28 32 -74 c36 -81 137 -262 150 -267 4 -2 8 -8 8
-13 0 -11 86 -134 144 -204 152 -188 428 -424 593 -509 49 -25 67 -20 87 21
17 36 17 37 -6 55 -13 10 -48 33 -78 50 -30 18 -60 37 -67 43 -22 18 -37 30
-60 46 -81 56 -332 306 -333 331 0 4 -8 15 -18 25 -46 45 -224 302 -276 398
-67 124 -84 150 -97 152 -8 1 -29 -10 -47 -26z"/>
<path d="M7440 9353 c-14 -3 -29 -11 -33 -19 -6 -10 -29 -14 -81 -14 -53 0
-77 -4 -86 -15 -9 -11 -32 -15 -81 -15 -55 0 -70 -3 -77 -17 -4 -10 -6 -74 -3
-143 l6 -125 55 -3 c69 -4 200 29 297 74 65 30 73 38 73 62 0 15 5 62 12 104
10 71 10 79 -7 98 -18 20 -27 21 -75 13z"/>
<path d="M7053 8663 c-8 -3 -13 -24 -13 -53 0 -39 4 -52 19 -60 13 -6 252 -10
705 -10 l686 0 6 25 c4 18 -1 36 -17 59 -19 29 -30 35 -73 40 -61 7 -1295 7
-1313 -1z"/>
</g>
</svg>
