<?xml version="1.0" standalone="no"?>
<!DOCTYPE svg PUBLIC "-//W3C//DTD SVG 20010904//EN"
 "http://www.w3.org/TR/2001/REC-SVG-20010904/DTD/svg10.dtd">
<svg version="1.0" xmlns="http://www.w3.org/2000/svg"
 width="1242.000000pt" height="2436.000000pt" viewBox="0 0 1242.000000 2436.000000"
 preserveAspectRatio="xMidYMid meet">

<g transform="translate(0.000000,2436.000000) scale(0.100000,-0.100000)"
fill="#000000" stroke="none">
<path d="M6203 18054 c-86 -42 -135 -109 -180 -244 -25 -79 -31 -423 -8 -530
8 -41 18 -117 22 -168 8 -119 12 -122 144 -122 68 0 100 4 107 13 7 8 14 85
17 188 6 187 24 288 57 329 17 21 29 25 68 24 77 -1 119 -60 121 -171 1 -102
8 -118 49 -118 46 0 60 29 60 126 0 55 4 80 15 89 27 22 47 74 59 155 l11 80
147 3 146 3 33 36 c39 46 68 108 69 149 0 63 -95 132 -205 149 -28 4 -62 13
-77 21 -21 11 -87 14 -315 14 -286 -1 -288 -1 -340 -26z"/>
<path d="M5918 16792 c-47 -34 -78 -74 -78 -100 0 -36 -11 -51 -48 -63 -21 -7
-39 -15 -42 -19 -3 -4 -26 -19 -51 -33 -25 -15 -65 -45 -90 -67 -24 -22 -51
-42 -60 -45 -15 -5 -111 -108 -159 -171 -14 -18 -33 -33 -43 -34 -16 0 -17 11
-11 158 6 141 5 161 -11 192 -11 21 -20 65 -23 113 -3 42 -8 80 -13 82 -9 6
-68 -8 -124 -29 -141 -54 -215 -76 -250 -76 -22 0 -62 -7 -89 -15 -27 -8 -68
-15 -91 -15 -23 0 -50 -7 -61 -15 -10 -8 -31 -15 -46 -15 -37 0 -48 -25 -48
-103 0 -35 -3 -85 -6 -111 l-7 -46 -141 0 c-103 0 -147 -4 -161 -14 -11 -7
-44 -16 -74 -18 -71 -7 -81 -21 -81 -120 l0 -78 -32 0 c-18 0 -44 -6 -58 -13
-15 -8 -64 -17 -110 -20 -46 -4 -88 -11 -94 -17 -5 -5 -18 -10 -28 -10 -17 0
-18 12 -18 149 0 95 -4 152 -11 156 -20 13 -54 -5 -73 -37 -41 -69 -48 -85
-67 -143 -33 -105 -21 -312 22 -385 5 -8 14 -26 19 -40 6 -14 15 -32 20 -40
25 -37 33 -69 34 -126 1 -91 23 -105 96 -67 14 7 39 13 57 13 17 0 38 7 47 15
8 8 28 15 43 15 16 0 38 7 49 15 10 8 31 15 47 15 15 0 44 9 64 20 50 27 89
25 116 -3 26 -27 97 -62 147 -72 19 -4 40 -11 45 -15 6 -5 21 -10 35 -12 l25
-3 -4 -115 c-2 -63 -8 -121 -13 -127 -8 -9 -51 -13 -153 -13 -115 0 -145 -3
-155 -15 -8 -9 -30 -15 -57 -15 -83 0 -83 -1 -83 -169 0 -81 5 -161 10 -178 6
-16 12 -63 13 -103 l2 -74 -38 -7 c-21 -3 -43 -11 -50 -18 -6 -6 -39 -11 -73
-11 -42 0 -67 -5 -78 -15 -10 -11 -36 -15 -90 -15 l-76 0 0 39 c0 22 5 41 12
43 9 3 17 52 25 149 7 79 16 171 22 204 12 78 13 236 1 255 -7 12 -13 11 -34
-9 -14 -13 -38 -42 -53 -65 -15 -22 -31 -43 -34 -46 -20 -17 -110 -189 -138
-263 -84 -225 -92 -429 -24 -642 37 -117 124 -258 145 -237 5 5 12 42 15 83 3
41 9 79 13 84 4 6 11 25 15 42 6 30 9 32 33 25 48 -13 369 -9 384 6 7 7 40 12
84 12 49 0 77 5 87 14 14 14 140 26 152 14 4 -3 -2 -43 -12 -87 l-18 -81 -194
-2 -194 -3 -21 -35 c-18 -32 -21 -55 -24 -262 l-4 -228 -84 0 c-80 0 -84 1
-85 23 0 12 -13 45 -30 72 -16 28 -33 59 -38 70 -12 26 -77 95 -90 95 -21 0
-39 -47 -50 -126 -5 -44 -15 -93 -21 -108 -5 -15 -10 -44 -10 -65 0 -20 -7
-63 -15 -95 -15 -58 -15 -60 6 -83 13 -12 28 -23 35 -23 7 0 14 -3 16 -7 8
-19 131 -86 266 -145 28 -12 52 -28 52 -34 0 -6 -7 -33 -15 -60 -9 -27 -18
-107 -21 -179 -8 -175 11 -299 61 -410 38 -84 45 -85 114 -25 55 47 60 54 54
83 -3 18 -9 37 -14 42 -30 39 -60 304 -50 435 l6 75 55 -3 c30 -2 73 -8 95
-14 22 -6 105 -14 185 -17 l145 -6 4 -35 c4 -42 -24 -282 -46 -395 -17 -88
-49 -195 -69 -237 -8 -14 -14 -31 -14 -38 0 -18 -78 -145 -105 -170 -38 -36
-32 -55 34 -99 l60 -39 38 66 c22 37 47 87 57 112 10 25 24 59 31 75 20 48 51
154 68 230 9 39 21 95 28 125 6 30 14 133 17 228 4 161 6 173 25 187 12 8 31
15 42 15 30 1 58 29 85 85 13 28 26 52 30 55 4 3 39 73 79 155 40 83 77 157
82 165 5 8 15 27 22 43 6 15 15 27 19 27 4 0 9 -96 10 -212 0 -117 2 -217 3
-223 2 -5 3 -73 4 -151 1 -136 2 -141 28 -172 14 -18 31 -41 37 -51 24 -41
126 -178 145 -195 24 -22 28 -72 7 -101 -7 -11 -16 -37 -20 -57 -4 -20 -13
-50 -21 -65 -8 -15 -15 -40 -15 -55 0 -15 -6 -42 -14 -60 -20 -49 -37 -98 -47
-141 -5 -21 -13 -45 -18 -55 -5 -9 -35 -98 -66 -197 -32 -99 -69 -211 -82
-250 -14 -38 -28 -86 -32 -105 -4 -19 -13 -45 -19 -57 -7 -12 -12 -29 -12 -38
0 -9 -6 -31 -14 -48 -19 -43 -56 -160 -56 -176 0 -7 -6 -27 -14 -44 -7 -18
-23 -66 -35 -107 -12 -41 -29 -90 -37 -108 -8 -18 -14 -43 -14 -55 -1 -12 -7
-33 -15 -47 -8 -14 -14 -35 -15 -47 0 -12 -7 -37 -14 -55 -8 -18 -25 -67 -37
-108 -12 -41 -34 -115 -50 -165 -16 -49 -29 -96 -29 -105 0 -8 -6 -27 -14 -41
-7 -14 -16 -43 -20 -65 -5 -21 -12 -44 -17 -50 -5 -6 -13 -31 -19 -55 -13 -62
-38 -150 -49 -174 -5 -11 -14 -39 -20 -62 -29 -112 -34 -130 -47 -160 -8 -17
-14 -39 -14 -50 0 -10 -7 -38 -15 -63 -8 -25 -24 -79 -36 -120 -11 -41 -27
-94 -35 -118 -8 -23 -14 -50 -14 -59 0 -8 -6 -36 -14 -62 -8 -25 -22 -71 -30
-101 -15 -52 -21 -73 -51 -200 -7 -30 -18 -77 -25 -105 -33 -137 -39 -164 -49
-215 -27 -134 -33 -195 -22 -222 l11 -28 183 0 c146 0 187 3 203 15 11 8 42
14 75 15 35 0 61 5 68 14 6 7 31 16 55 18 73 9 120 35 139 79 9 22 17 45 17
52 0 7 4 17 9 23 5 5 14 25 19 44 6 19 20 60 32 90 12 30 26 69 31 85 5 17 13
39 18 50 18 42 50 131 57 158 3 15 10 30 15 33 5 3 9 13 9 22 0 9 6 29 14 44
8 15 17 41 21 58 4 17 13 43 21 58 8 15 14 35 14 44 0 9 4 19 9 22 5 3 21 45
36 93 15 49 34 97 41 108 8 11 14 27 14 37 0 9 6 32 14 50 8 18 25 60 37 93
12 33 25 69 30 80 8 18 21 56 49 135 5 14 25 70 46 125 20 55 49 135 64 179
16 43 33 88 38 100 6 11 20 50 32 86 12 36 26 74 32 85 6 11 15 33 19 50 4 16
17 55 29 85 12 30 37 98 56 150 19 52 41 111 48 130 8 19 19 51 26 70 7 19 25
62 41 95 16 33 29 70 29 81 0 11 7 29 15 40 8 10 15 27 15 37 0 9 9 34 20 54
11 21 20 47 20 58 0 11 7 29 15 39 8 11 15 29 15 41 0 11 6 29 14 40 7 11 16
33 20 50 14 58 53 74 74 33 7 -13 36 -57 66 -98 30 -41 75 -104 100 -140 25
-36 67 -96 95 -135 27 -38 63 -88 78 -110 15 -22 48 -68 73 -101 25 -34 52
-72 60 -84 8 -12 29 -41 46 -64 39 -51 105 -145 150 -211 47 -70 231 -330 329
-464 28 -38 57 -79 65 -91 15 -22 63 -90 118 -165 27 -38 60 -84 139 -197 20
-29 39 -55 42 -58 10 -8 51 -69 51 -75 0 -3 7 -13 16 -23 16 -17 35 -44 209
-291 55 -78 116 -164 135 -191 19 -26 42 -58 50 -70 8 -12 31 -44 50 -70 19
-26 42 -58 50 -70 8 -12 38 -53 65 -90 28 -38 72 -101 100 -140 46 -65 88
-100 122 -100 7 0 13 5 13 10 0 6 22 10 49 10 31 0 53 5 61 15 7 8 23 15 36
15 17 0 47 23 97 73 87 89 107 115 107 140 0 10 7 25 15 33 8 9 15 30 15 47 0
18 7 45 15 61 14 26 14 31 0 46 -14 15 -192 364 -429 840 -54 107 -101 202
-106 210 -22 39 -695 1369 -753 1487 -16 32 -32 65 -37 73 -5 8 -19 35 -30 60
-12 25 -25 52 -30 60 -5 8 -60 116 -121 240 -62 124 -117 227 -121 228 -4 2
-8 8 -8 13 0 10 -41 99 -60 129 -5 8 -27 51 -48 95 -54 110 -162 327 -172 345
-70 128 -246 488 -242 498 5 16 66 42 98 42 13 0 59 -28 106 -63 88 -67 211
-142 318 -195 129 -62 283 -99 340 -81 40 13 146 113 253 238 40 47 85 99 100
115 16 17 48 56 70 86 23 30 44 57 47 60 32 32 97 180 119 271 44 182 14 463
-64 615 -12 22 -27 76 -34 120 -12 74 -42 183 -62 229 -5 11 -13 31 -19 45
-33 77 -72 120 -109 120 -21 0 -31 -5 -31 -15 0 -8 -7 -15 -15 -15 -8 0 -24
-9 -35 -20 -11 -11 -31 -20 -45 -20 -14 0 -28 -7 -31 -15 -5 -11 -22 -15 -70
-15 -48 0 -64 -3 -64 -14 0 -7 -9 -16 -20 -19 -11 -3 -20 -12 -20 -21 0 -9 -7
-16 -15 -16 -8 0 -15 -7 -15 -15 0 -8 -7 -15 -15 -15 -8 0 -15 -7 -15 -15 0
-8 -9 -15 -20 -15 -11 0 -28 -9 -37 -20 -10 -11 -23 -20 -30 -20 -7 0 -13 -7
-13 -15 0 -8 -4 -15 -10 -15 -14 0 -90 -75 -90 -88 0 -7 -7 -12 -15 -12 -8 0
-15 -7 -15 -15 0 -8 -8 -15 -17 -15 -10 0 -35 -16 -56 -35 -21 -19 -42 -35
-48 -35 -5 0 -9 -7 -9 -15 0 -8 -9 -15 -20 -15 -11 0 -20 -7 -20 -15 0 -8 -7
-15 -15 -15 -8 0 -15 -6 -15 -14 0 -8 -9 -18 -20 -21 -11 -3 -20 -13 -20 -21
0 -8 -9 -14 -20 -14 -11 0 -23 -7 -26 -15 -4 -8 -13 -15 -20 -15 -8 0 -17 -7
-20 -15 -4 -8 -10 -15 -15 -15 -13 0 -59 -46 -59 -59 0 -6 -7 -11 -15 -11 -8
0 -15 -7 -15 -15 0 -8 -7 -15 -16 -15 -12 0 -14 4 -7 13 6 6 13 37 17 67 4 30
14 74 22 98 8 23 14 71 14 106 0 37 6 76 15 92 10 20 15 59 15 120 0 106 -4
100 145 174 50 24 95 48 100 53 6 4 39 27 75 50 100 65 206 173 221 227 12 40
57 117 96 161 20 23 4 56 -54 116 -133 136 -264 182 -377 132 -69 -30 -79 -25
-93 51 -16 88 -38 172 -52 198 -6 11 -11 28 -11 36 0 27 -70 168 -121 243
l-49 72 46 46 46 45 -46 49 c-55 59 -454 458 -477 478 -21 17 -28 16 -71 -15z"/>
<path d="M9325 9230 c-7 -11 -125 -90 -135 -90 -6 0 -10 -7 -10 -15 0 -8 -6
-15 -13 -15 -13 0 -44 -21 -78 -52 -11 -10 -21 -18 -24 -18 -9 0 -70 -44 -73
-52 -2 -5 -10 -8 -18 -8 -8 0 -17 -6 -20 -14 -3 -8 -15 -17 -27 -20 -12 -3
-37 -19 -55 -36 -18 -16 -38 -30 -43 -30 -10 0 -62 -35 -87 -57 -7 -7 -20 -13
-27 -13 -8 0 -18 -6 -22 -12 -9 -14 -37 -33 -70 -47 -11 -6 -24 -15 -28 -21
-4 -6 -17 -16 -28 -21 -12 -5 -35 -18 -52 -29 -16 -11 -41 -25 -55 -30 -13 -6
-27 -14 -30 -18 -3 -4 -27 -18 -55 -32 -27 -14 -54 -31 -58 -37 -4 -7 -17 -13
-27 -13 -10 0 -23 -6 -27 -14 -4 -8 -17 -15 -28 -17 -30 -6 -32 -55 -4 -85
l22 -23 61 33 c33 18 111 63 173 100 61 36 114 66 117 66 2 0 28 16 58 35 29
19 60 39 68 45 191 124 418 282 515 357 6 5 38 28 72 53 74 54 86 71 74 103
-9 23 -56 43 -66 27z"/>
<path d="M4022 8342 c-27 -18 -28 -39 -3 -71 17 -23 28 -25 162 -34 283 -20
1191 -8 1215 15 10 11 7 79 -5 91 -18 18 -521 10 -542 -9 -22 -20 -230 -20
-262 0 -34 21 -534 29 -565 8z"/>
</g>
</svg>
