<?xml version="1.0" standalone="no"?>
<!DOCTYPE svg PUBLIC "-//W3C//DTD SVG 20010904//EN"
 "http://www.w3.org/TR/2001/REC-SVG-20010904/DTD/svg10.dtd">
<svg version="1.0" xmlns="http://www.w3.org/2000/svg"
 width="1242.000000pt" height="2436.000000pt" viewBox="0 0 1242.000000 2436.000000"
 preserveAspectRatio="xMidYMid meet">

<g transform="translate(0.000000,2436.000000) scale(0.100000,-0.100000)"
fill="#000000" stroke="none">
<path d="M5587 17726 c-3 -8 -24 -17 -47 -21 -23 -4 -54 -13 -68 -21 -15 -8
-31 -14 -35 -14 -19 0 -128 -83 -167 -127 -66 -75 -120 -212 -120 -303 0 -44
-3 -49 -42 -76 -132 -89 -236 -226 -293 -385 -31 -87 -55 -193 -55 -246 l0
-53 40 0 c33 0 42 4 52 25 6 14 14 25 18 25 14 0 21 -71 20 -179 -1 -58 -1
-111 -1 -117 1 -7 43 -13 113 -17 147 -9 148 -8 148 119 0 51 3 100 6 109 6
15 8 15 25 -1 10 -9 22 -13 27 -10 6 3 8 73 4 176 -4 128 -2 173 8 185 10 13
16 9 37 -23 32 -49 98 -110 120 -112 34 -4 40 0 58 39 l18 40 -32 60 c-26 51
-31 71 -31 131 0 90 19 115 85 115 71 0 91 -27 100 -135 6 -76 10 -91 29 -103
17 -11 27 -12 42 -4 31 17 34 27 34 123 0 105 1 106 110 190 112 85 287 154
392 154 25 0 60 3 77 6 27 6 31 11 31 38 0 18 -7 41 -15 52 -8 10 -15 25 -15
33 0 33 -47 109 -95 156 -62 60 -69 65 -120 91 -79 41 -111 53 -148 60 -21 4
-41 13 -44 20 -8 20 -258 20 -266 0z"/>
<path d="M6352 16283 c-21 -4 -22 -7 -16 -91 3 -48 12 -106 20 -130 8 -23 14
-64 14 -90 1 -26 5 -67 11 -92 5 -25 14 -83 19 -129 6 -46 15 -89 20 -96 6 -7
14 -32 19 -56 6 -24 14 -62 20 -84 5 -22 9 -181 9 -360 0 -198 4 -341 11 -375
6 -30 16 -122 22 -205 5 -82 14 -163 20 -180 6 -16 13 -120 16 -230 2 -110 10
-216 16 -235 6 -19 14 -136 18 -260 8 -273 23 -386 52 -402 19 -10 17 -12 -19
-24 -50 -17 -160 -18 -171 -1 -4 6 -10 89 -13 182 l-5 170 -55 -2 c-30 -1
-118 -7 -195 -13 -162 -13 -1039 -5 -1095 9 -19 5 -89 11 -155 13 l-119 3 -18
-65 c-32 -119 -20 -429 24 -610 5 -25 16 -72 23 -105 7 -33 21 -87 30 -120 9
-33 21 -79 27 -102 6 -24 21 -52 33 -63 21 -20 23 -20 56 -4 19 10 42 21 53
26 10 5 68 18 130 29 140 24 317 24 530 1 176 -20 179 -22 191 -95 4 -23 16
-60 26 -84 l18 -42 53 6 c29 3 58 12 64 19 6 8 27 14 46 14 20 0 41 7 48 15 7
8 19 15 26 15 8 0 31 9 51 20 21 11 43 20 49 20 7 0 14 7 18 15 3 8 17 15 30
15 14 0 30 8 35 18 9 15 10 15 11 -5 0 -14 -6 -23 -15 -23 -9 0 -15 -9 -15
-22 0 -13 -9 -43 -20 -67 -11 -24 -20 -51 -20 -61 0 -10 -7 -23 -15 -30 -8 -7
-15 -28 -15 -47 0 -21 -6 -36 -15 -39 -10 -4 -15 -20 -15 -50 0 -32 -4 -44
-15 -44 -24 0 -17 -36 10 -54 13 -9 35 -16 48 -16 14 0 30 -7 37 -15 7 -8 24
-15 39 -15 15 0 35 -6 46 -14 19 -12 52 -19 255 -47 46 -7 195 -9 380 -6 301
4 306 5 380 31 41 15 86 30 100 33 31 8 42 16 112 86 32 32 58 67 58 76 0 10
7 24 15 31 11 9 15 35 15 107 0 71 -4 98 -15 109 -8 9 -15 28 -15 42 0 15 -9
44 -20 65 -11 20 -20 44 -20 52 0 8 -4 15 -10 15 -5 0 -13 12 -16 27 -4 15
-16 36 -26 47 -10 11 -18 25 -18 32 0 7 -3 14 -7 16 -14 6 -53 67 -53 83 0 8
-7 15 -15 15 -8 0 -15 5 -15 10 0 14 -41 72 -57 83 -7 4 -13 14 -13 21 0 8 -7
16 -15 20 -8 3 -15 11 -15 18 0 7 -16 30 -35 51 -19 21 -35 40 -35 43 0 3 -12
17 -27 32 -16 15 -36 39 -46 55 -17 27 -18 27 -130 27 -83 0 -120 4 -142 16
-16 9 -54 18 -83 21 -43 5 -53 10 -57 27 -16 75 -25 144 -30 231 -4 55 -13
138 -21 184 -8 46 -14 109 -14 140 0 31 -7 108 -15 171 -21 167 -34 298 -45
445 -6 72 -14 148 -20 171 -5 22 -12 92 -16 155 -3 63 -12 160 -20 215 -8 56
-14 132 -15 170 0 38 -4 92 -10 119 -5 28 -14 109 -19 180 -5 72 -14 164 -20
205 -6 41 -15 131 -20 200 -10 142 -30 345 -36 375 -9 42 -94 73 -162 58z"/>
<path d="M10958 13285 c-3 -3 -48 -10 -99 -15 -52 -6 -116 -14 -144 -20 -117
-22 -251 -52 -270 -60 -11 -4 -54 -18 -95 -30 -41 -13 -79 -27 -84 -31 -6 -5
-18 -9 -27 -9 -9 0 -50 -14 -90 -31 -41 -18 -90 -38 -109 -46 -19 -8 -42 -18
-50 -23 -8 -5 -35 -19 -60 -32 -25 -13 -77 -42 -116 -65 -39 -24 -76 -43 -82
-43 -6 0 -12 -4 -14 -8 -1 -4 -32 -26 -68 -47 -36 -22 -69 -43 -75 -47 -5 -4
-64 -50 -130 -100 -137 -106 -192 -154 -325 -288 -152 -153 -232 -240 -285
-310 -27 -36 -55 -69 -61 -75 -7 -5 -23 -28 -37 -51 -14 -22 -31 -47 -39 -55
-8 -8 -25 -32 -38 -54 -13 -22 -26 -42 -30 -45 -5 -5 -57 -81 -75 -112 -5 -9
-29 -48 -51 -85 -119 -195 -254 -472 -341 -698 -9 -22 -22 -54 -29 -72 -8 -17
-14 -37 -14 -45 0 -8 -4 -18 -9 -23 -4 -6 -25 -64 -46 -130 -20 -66 -41 -131
-45 -145 -9 -27 -34 -114 -55 -195 -8 -27 -21 -86 -30 -130 -10 -44 -23 -106
-31 -138 -8 -32 -14 -70 -14 -83 0 -14 -6 -53 -14 -87 -19 -82 -37 -210 -47
-327 -4 -52 -12 -135 -18 -185 -12 -112 -14 -292 -3 -299 14 -9 95 25 110 45
8 11 60 75 115 142 56 67 118 142 137 167 19 25 49 61 66 80 18 19 53 64 80
98 26 35 55 69 65 75 11 7 19 17 19 24 0 7 5 13 10 13 6 0 10 7 10 15 0 8 4
15 8 15 5 0 24 21 43 48 18 26 48 62 66 80 18 18 33 34 33 37 0 2 14 19 30 37
17 18 30 36 30 40 0 11 38 48 50 48 6 0 10 7 10 15 0 8 7 15 15 15 8 0 15 7
15 15 0 8 3 15 8 15 4 0 13 13 20 29 7 16 28 46 47 66 19 20 35 41 35 46 0 5
7 9 15 9 8 0 15 7 15 15 0 8 7 15 15 15 8 0 15 7 15 15 0 8 7 15 15 15 8 0 15
9 15 19 0 10 7 21 15 25 8 3 15 12 15 21 0 8 7 15 15 15 8 0 15 7 15 15 0 8 7
15 15 15 8 0 15 7 15 15 0 8 7 15 15 15 8 0 15 7 15 15 0 8 7 15 15 15 8 0 15
7 15 15 0 8 4 15 9 15 5 0 11 10 14 23 4 12 24 42 47 65 22 24 40 48 40 53 0
5 7 9 15 9 8 0 15 7 15 15 0 8 7 15 15 15 8 0 15 7 15 15 0 8 7 15 15 15 8 0
15 9 15 20 0 11 7 23 15 26 8 4 15 12 15 20 0 8 7 14 15 14 8 0 15 7 15 15 0
8 7 15 15 15 8 0 15 7 15 15 0 8 7 15 15 15 8 0 15 7 15 15 0 8 5 15 10 15 6
0 10 7 10 15 0 7 6 18 13 22 7 4 21 22 31 38 22 34 111 125 123 125 4 0 16 18
27 40 10 21 25 41 32 44 8 3 14 12 14 21 0 8 7 15 15 15 8 0 15 7 15 15 0 8 7
15 15 15 8 0 15 7 15 15 0 8 7 15 15 15 8 0 15 7 15 15 0 8 5 15 10 15 6 0 10
6 10 13 0 6 14 26 30 44 17 18 30 36 30 40 0 11 37 43 50 43 6 0 10 7 10 15 0
8 7 15 15 15 8 0 15 7 15 15 0 8 7 15 15 15 9 0 15 9 15 23 0 13 13 33 30 47
16 14 29 31 30 38 0 6 7 12 15 12 8 0 15 7 15 15 0 8 7 15 15 15 8 0 15 7 15
15 0 8 5 15 10 15 6 0 10 7 10 15 0 8 7 15 15 15 8 0 15 7 15 15 0 8 14 28 30
45 17 17 30 35 30 40 0 6 7 10 15 10 8 0 15 7 15 15 0 8 7 15 15 15 8 0 15 7
15 15 0 8 7 15 15 15 8 0 15 7 15 15 0 8 7 15 15 15 12 0 21 23 13 33 -2 1 12
17 30 35 17 17 32 36 32 42 0 5 7 10 15 10 8 0 15 7 15 15 0 8 7 15 15 15 8 0
15 5 15 11 0 6 14 24 30 41 17 16 30 36 30 44 0 8 5 14 10 14 6 0 10 7 10 15
0 8 7 15 15 15 8 0 15 7 15 15 0 8 7 15 15 15 8 0 15 7 15 15 0 8 7 15 15 15
8 0 15 7 15 15 0 8 7 15 15 15 8 0 15 7 15 15 0 8 7 15 15 15 8 0 15 7 15 15
0 12 -18 15 -104 15 -74 0 -105 4 -109 13 -2 7 25 51 62 98 36 48 95 124 130
170 36 46 67 86 70 89 3 3 19 23 34 46 15 22 35 49 45 60 10 10 53 66 97 124
72 95 180 233 223 285 21 25 52 73 52 80 0 7 -175 7 -182 0z"/>
<path d="M4213 12619 c-6 -8 -14 -36 -18 -63 -9 -59 -1 -66 73 -66 33 0 54 -5
57 -13 3 -6 -11 -50 -30 -97 -23 -56 -35 -100 -35 -131 0 -26 -6 -60 -14 -76
-8 -15 -22 -47 -30 -70 -24 -63 -47 -123 -68 -170 -10 -23 -18 -49 -18 -57 0
-8 -4 -17 -9 -21 -5 -3 -13 -20 -16 -38 -4 -17 -13 -43 -20 -57 -8 -14 -23
-52 -36 -85 -30 -82 -55 -129 -71 -133 -8 -1 -24 16 -37 38 -13 23 -39 57 -57
76 l-35 34 -149 0 c-136 0 -150 2 -150 18 0 18 23 92 40 127 5 11 26 63 46
115 20 52 42 109 49 125 7 17 20 52 30 78 9 27 25 56 34 65 23 23 51 69 51 84
1 7 9 31 20 53 11 22 19 45 20 52 0 6 9 28 21 47 l21 36 93 0 c110 0 125 4
125 37 0 30 -24 79 -43 86 -29 11 -400 7 -413 -4 -8 -7 -14 -31 -14 -59 0 -54
7 -60 75 -60 24 0 47 -5 50 -10 6 -10 -19 -92 -35 -115 -10 -14 -20 -59 -30
-126 -4 -31 -17 -76 -29 -102 -12 -25 -21 -52 -21 -60 0 -7 -7 -22 -15 -33 -8
-10 -15 -27 -15 -37 0 -9 -9 -34 -20 -54 -11 -21 -20 -43 -20 -49 0 -7 -7 -25
-15 -40 -8 -16 -15 -37 -15 -46 0 -9 -4 -19 -9 -22 -5 -3 -12 -18 -16 -33 -3
-16 -16 -38 -27 -50 l-21 -23 -608 0 c-590 0 -610 -1 -647 -20 -36 -19 -90
-71 -106 -102 -4 -7 -13 -24 -21 -38 -8 -14 -15 -35 -15 -46 0 -12 -7 -27 -15
-34 -8 -7 -15 -22 -15 -34 0 -12 -7 -31 -15 -42 -8 -10 -15 -27 -15 -37 0 -11
-6 -33 -14 -50 -31 -74 -56 -143 -56 -158 0 -8 -7 -24 -15 -35 -8 -10 -15 -31
-15 -46 0 -15 -7 -33 -15 -42 -8 -8 -15 -23 -15 -33 -1 -10 -9 -36 -20 -58
-11 -22 -20 -49 -20 -60 0 -11 -7 -29 -15 -39 -8 -11 -15 -29 -15 -41 0 -12
-7 -30 -15 -41 -8 -10 -15 -28 -15 -39 0 -11 -6 -32 -14 -47 -8 -15 -17 -42
-21 -60 -4 -18 -14 -42 -21 -53 -8 -11 -14 -29 -14 -40 0 -11 -7 -29 -15 -39
-8 -11 -15 -29 -15 -41 0 -12 -7 -30 -15 -41 -8 -10 -15 -30 -15 -42 0 -13 -7
-36 -15 -50 -17 -30 -42 -100 -55 -151 -5 -18 -13 -38 -19 -44 -6 -6 -11 -20
-11 -30 0 -10 -6 -33 -14 -50 -30 -72 -56 -143 -56 -157 0 -8 -7 -24 -15 -34
-8 -11 -15 -29 -15 -41 0 -12 -7 -30 -15 -41 -25 -33 -19 -101 14 -143 15 -20
31 -46 35 -58 4 -13 11 -23 14 -23 4 0 19 -21 32 -47 14 -27 28 -49 32 -51 4
-2 18 -27 32 -56 14 -29 32 -59 41 -66 8 -7 15 -18 15 -25 0 -7 7 -15 15 -19
8 -3 15 -10 15 -16 0 -6 21 -43 46 -81 51 -78 66 -119 53 -140 -5 -8 -9 -65
-9 -127 0 -127 14 -171 76 -228 59 -55 197 -56 266 -2 39 30 78 103 78 143 0
12 3 37 6 54 l7 31 380 -2 381 -3 12 -68 c15 -81 36 -119 85 -159 34 -27 44
-30 120 -31 93 -2 130 13 168 64 30 40 61 124 61 163 0 33 1 33 53 39 49 5 97
24 143 57 34 25 88 139 126 270 5 19 14 39 19 45 5 5 9 16 9 25 0 8 6 27 14
42 8 15 17 42 21 60 4 18 12 38 17 45 6 7 14 27 18 45 11 43 38 119 49 138 5
9 12 31 16 50 4 19 14 44 21 55 8 11 14 29 14 40 0 11 6 29 14 40 7 11 16 31
19 45 6 29 33 106 47 135 14 29 40 105 50 143 4 18 12 38 18 45 5 7 12 23 15
37 5 22 27 85 73 205 8 22 19 55 24 74 5 18 13 38 19 44 6 6 11 20 11 31 0 12
7 35 16 51 9 17 20 44 24 60 10 36 28 89 46 130 16 38 44 130 44 145 0 7 -22
40 -50 75 -27 35 -50 67 -50 73 0 5 -7 12 -15 16 -8 3 -15 13 -15 21 0 9 -16
37 -35 62 -19 25 -35 52 -35 59 0 8 -3 14 -8 14 -4 0 -18 24 -32 53 -13 28
-37 68 -52 88 -32 42 -37 96 -13 143 8 15 15 33 15 40 1 6 9 29 20 51 11 22
20 47 20 55 0 8 7 24 15 34 8 11 15 28 15 37 0 10 7 30 15 46 8 15 31 71 51
123 59 158 65 174 80 203 8 16 14 35 14 42 0 8 13 29 29 47 28 32 42 62 95
198 l25 65 48 3 c91 5 93 6 93 66 l0 54 -37 6 c-21 3 -101 8 -178 12 -112 5
-143 3 -152 -7z"/>
<path d="M6161 11967 c-11 -14 -11 -17 0 -17 10 0 10 -3 1 -12 -17 -17 -17
-205 1 -210 8 -3 13 -48 17 -158 4 -110 9 -155 18 -158 8 -2 12 -32 12 -99 0
-71 4 -98 15 -109 11 -11 15 -37 15 -89 0 -56 4 -74 15 -79 11 -4 15 -20 15
-56 0 -41 -3 -50 -17 -50 -10 0 -31 18 -47 40 -17 22 -33 40 -38 40 -16 0 -14
-495 3 -655 5 -49 14 -151 19 -225 6 -74 15 -169 20 -210 6 -41 13 -126 17
-189 5 -101 9 -116 31 -143 56 -67 329 -277 440 -340 43 -24 224 -114 267
-133 73 -31 182 -74 205 -80 14 -3 67 -17 118 -31 51 -13 108 -24 127 -24 18
0 37 -4 40 -10 3 -5 37 -10 75 -10 51 0 69 4 74 15 3 8 17 15 31 15 28 0 65
32 65 55 0 8 -6 15 -13 15 -7 0 -13 10 -14 22 -1 12 -9 26 -18 30 -8 5 -15 20
-15 33 0 16 -6 25 -15 25 -10 0 -15 10 -15 30 0 20 -5 30 -15 30 -10 0 -15 10
-15 29 0 16 -6 31 -15 35 -8 3 -15 17 -15 31 0 16 -6 25 -15 25 -9 0 -15 9
-15 24 0 13 -7 26 -15 30 -8 3 -15 15 -15 26 0 12 -7 28 -15 36 -8 9 -15 24
-15 34 0 10 -7 20 -15 24 -8 3 -15 17 -15 31 0 14 -4 25 -10 25 -5 0 -10 11
-10 25 0 14 -7 28 -15 31 -8 4 -15 15 -15 25 0 10 -5 19 -11 19 -5 0 -7 5 -4
10 3 6 1 10 -4 10 -6 0 -11 7 -11 15 0 9 -7 18 -15 21 -8 4 -15 14 -15 24 0
10 -7 20 -15 24 -8 3 -15 16 -15 30 0 13 -7 26 -15 30 -8 3 -15 16 -15 30 0
13 -7 26 -15 30 -8 3 -15 17 -15 31 0 16 -6 25 -15 25 -10 0 -15 10 -15 30 0
20 -5 30 -15 30 -9 0 -15 9 -15 24 0 13 -7 26 -15 30 -8 3 -15 16 -15 30 0 13
-7 26 -15 30 -8 3 -15 15 -15 26 0 12 -7 28 -15 36 -8 9 -15 24 -15 35 0 10
-4 19 -10 19 -5 0 -10 14 -10 30 0 20 -5 30 -15 30 -9 0 -15 9 -15 25 0 13 -7
28 -15 33 -9 4 -17 18 -18 29 0 12 -6 21 -11 20 -6 -1 -12 8 -14 21 -2 13 -10
26 -18 29 -8 3 -14 13 -14 23 0 10 -7 20 -15 24 -8 3 -15 16 -15 30 0 13 -7
26 -15 30 -8 3 -15 16 -15 30 0 13 -7 26 -15 30 -8 3 -15 17 -15 31 0 16 -6
25 -15 25 -10 0 -15 10 -15 29 0 16 -6 31 -15 35 -8 3 -15 14 -15 25 0 10 -7
21 -15 25 -8 3 -15 17 -15 31 0 14 -4 25 -10 25 -5 0 -10 14 -10 30 0 20 -5
30 -15 30 -10 0 -15 10 -15 30 0 20 -5 30 -15 30 -10 0 -15 10 -15 30 0 20 -5
30 -15 30 -9 0 -15 9 -15 25 0 14 -7 28 -15 31 -8 4 -15 13 -15 20 0 8 -7 17
-15 20 -8 4 -15 17 -15 30 0 14 -7 27 -15 30 -8 4 -15 13 -15 21 0 8 -7 21
-15 29 -8 9 -15 24 -15 34 0 10 -7 20 -15 24 -8 3 -15 16 -15 30 0 13 -7 26
-15 30 -8 3 -15 16 -15 30 0 13 -7 26 -15 30 -8 3 -15 14 -15 25 0 10 -7 21
-15 25 -8 3 -15 17 -15 31 0 14 -4 25 -10 25 -5 0 -10 14 -10 30 0 20 -5 30
-15 30 -10 0 -15 10 -15 30 0 20 -5 30 -15 30 -10 0 -15 10 -15 30 0 20 -5 30
-15 30 -10 0 -15 10 -15 30 0 20 -5 30 -15 30 -9 0 -15 9 -15 25 0 14 -5 24
-12 23 -7 -2 -14 7 -16 20 -2 13 -10 26 -18 29 -8 3 -14 15 -14 28 0 12 -6 28
-14 35 -8 6 -16 21 -18 32 -3 20 -4 20 -17 5z"/>
<path d="M5206 11873 c3 -48 10 -110 15 -138 6 -27 14 -79 19 -115 24 -165 65
-345 115 -510 9 -30 19 -67 22 -81 4 -19 10 -25 23 -22 18 5 30 71 30 177 l0
51 22 -35 c13 -19 28 -41 35 -48 7 -7 13 -22 13 -33 0 -10 7 -19 15 -19 9 0
15 -9 15 -24 0 -14 5 -28 10 -31 6 -4 17 -22 25 -42 l15 -36 25 27 c25 27 33
74 16 91 -6 6 -14 35 -20 65 -5 30 -15 78 -21 105 -7 28 -14 59 -16 70 -2 11
-24 52 -49 90 -25 39 -53 90 -62 115 -9 25 -26 61 -38 80 -21 33 -88 155 -128
230 -39 73 -65 114 -75 118 -8 2 -9 -24 -6 -85z"/>
<path d="M5276 9335 c-11 -11 -38 -15 -103 -15 -48 0 -93 -4 -100 -8 -6 -4
-14 -25 -18 -47 -12 -75 -36 -220 -50 -295 -8 -41 -17 -95 -20 -120 -4 -25
-13 -69 -21 -98 -21 -82 -21 -82 126 -107 47 -8 110 -20 140 -26 59 -12 546
-7 588 6 54 17 -1 80 -148 170 -45 28 -113 73 -150 100 -38 28 -95 68 -126 90
l-56 40 5 90 c3 50 11 111 18 136 11 41 10 49 -7 72 -21 29 -55 35 -78 12z"/>
<path d="M6043 9134 c-3 -9 -2 -50 3 -92 10 -82 9 -237 -1 -444 l-6 -128 24
-11 c20 -9 37 -7 83 9 74 26 172 78 201 107 13 12 49 40 82 63 48 33 71 41
125 47 l65 7 -17 23 c-12 16 -35 27 -74 35 -72 14 -111 46 -144 119 -15 31
-30 64 -35 74 -14 26 -59 167 -59 183 0 18 -67 19 -73 2 -5 -16 -99 -16 -119
-1 -26 20 -49 23 -55 7z"/>
<path d="M6513 8591 c-24 -9 -48 -22 -55 -29 -7 -7 -16 -12 -21 -12 -5 0 -26
-14 -47 -30 -59 -46 -208 -120 -267 -132 -61 -12 -67 -23 -20 -34 84 -19 236
4 345 52 18 7 39 14 46 14 21 0 128 59 158 88 37 34 44 59 22 83 -22 24 -100
24 -161 0z"/>
</g>
</svg>
